<?xml version="1.0" standalone="no"?>
<!DOCTYPE svg PUBLIC "-//W3C//DTD SVG 20010904//EN"
 "http://www.w3.org/TR/2001/REC-SVG-20010904/DTD/svg10.dtd">
<svg version="1.0" xmlns="http://www.w3.org/2000/svg"
 width="300.000000pt" height="327.000000pt" viewBox="0 0 300.000000 327.000000"
 preserveAspectRatio="xMidYMid meet">
<metadata>
Created by potrace 1.10, written by Peter Selinger 2001-2011
</metadata>
<g transform="translate(0.000000,327.000000) scale(0.100000,-0.100000)"
fill="#000000" stroke="none">
<path d="M1280 3260 c-61 -7 -62 -6 68 -46 50 -15 92 -32 92 -37 0 -4 -10 -5
-22 -1 -38 13 -178 11 -160 -2 10 -8 -2 -9 -47 -6 -142 10 -391 -42 -602 -126
-171 -69 -238 -98 -247 -107 -4 -4 82 -5 191 -1 108 3 197 4 197 2 0 -2 -21
-11 -47 -20 -110 -38 -280 -170 -360 -280 -21 -28 -41 -52 -45 -54 -16 -7 -7
-21 9 -15 10 3 -10 -23 -44 -58 -58 -61 -204 -232 -200 -235 5 -5 146 35 174
49 48 25 51 21 12 -20 -89 -94 -162 -226 -214 -385 -18 -54 -30 -98 -27 -98 2
0 27 16 55 36 36 26 48 31 42 18 -15 -38 -74 -219 -71 -221 1 -2 38 38 81 87
79 91 99 106 72 53 -29 -54 -48 -148 -53 -258 -2 -60 -6 -136 -8 -167 -2 -32
0 -58 5 -58 5 0 9 6 9 13 0 6 12 46 27 87 20 55 40 88 75 124 26 27 50 47 53
44 3 -3 -4 -25 -15 -50 -47 -107 -52 -147 -44 -406 l7 -242 59 102 c32 57 77
120 101 141 l42 39 8 -39 c23 -111 127 -383 147 -383 4 0 10 23 13 51 4 28 12
58 19 66 10 12 17 -1 43 -75 29 -83 75 -162 94 -162 5 0 11 18 15 41 4 23 14
55 22 71 9 16 13 32 10 35 -8 9 -45 -78 -46 -107 l-1 -25 -24 29 c-26 32 -43
75 -72 176 l-19 65 -27 -27 c-18 -18 -27 -38 -27 -58 0 -44 -17 -37 -31 13 -6
23 -28 96 -49 162 -21 66 -39 138 -41 160 -1 22 -4 43 -6 47 -2 4 -26 -6 -53
-23 -50 -30 -94 -79 -122 -133 -14 -27 -15 -21 -21 105 -8 165 0 222 52 373
23 65 41 120 41 123 0 8 -63 -8 -95 -24 -16 -9 -42 -27 -57 -41 -15 -14 -30
-24 -32 -21 -2 2 7 46 20 98 25 98 56 168 105 235 16 22 27 41 26 42 -6 7
-118 -24 -132 -36 -36 -30 -20 1 39 75 35 44 63 81 62 82 -6 7 -125 -33 -150
-50 -33 -23 -33 -25 17 70 55 103 160 228 252 301 44 35 81 67 83 71 4 12
-150 -7 -196 -24 -24 -10 -45 -16 -47 -14 -5 6 161 151 201 175 20 12 94 43
163 69 171 63 177 66 111 60 -30 -3 -95 -9 -145 -14 -49 -5 -99 -12 -110 -16
-26 -10 21 32 95 84 106 74 196 110 346 140 l86 16 -84 35 c-60 25 -105 36
-163 40 -89 7 -87 9 40 44 286 81 462 85 670 17 50 -16 91 -28 92 -27 1 1 -18
17 -42 36 -24 19 -44 38 -45 41 0 3 23 0 52 -7 29 -8 59 -14 68 -14 16 0 -84
103 -110 112 -8 3 -13 8 -10 11 10 10 134 -31 340 -113 107 -42 254 -98 325
-125 259 -95 369 -168 463 -309 65 -98 86 -168 79 -264 -3 -41 -2 -71 3 -66
13 15 18 105 8 164 -19 111 -123 267 -231 346 -84 63 -140 90 -410 199 -128
51 -281 114 -342 139 -97 40 -149 56 -260 81 l-30 7 24 -25 c12 -14 21 -30 18
-34 -7 -10 39 -63 53 -63 6 0 10 -4 10 -9 0 -5 -8 -7 -19 -4 -11 3 -27 -4 -38
-16 -19 -20 -21 -20 -71 -6 -28 9 -67 16 -87 17 -19 1 -35 5 -35 10 0 10 5 10
92 8 56 -1 68 2 77 18 12 23 -8 43 -63 63 -20 7 -36 19 -36 26 0 7 -3 12 -7
11 -5 -1 -33 -4 -63 -8z m-505 -190 c-3 -5 -12 -10 -18 -10 -7 0 -6 4 3 10 19
12 23 12 15 0z m-91 -55 c-5 -20 -1 -27 17 -34 19 -8 9 -10 -46 -12 -38 -1
-90 -3 -115 -4 l-45 -3 50 24 c28 12 57 23 66 23 8 1 24 8 35 16 30 23 45 19
38 -10z m146 -56 c58 -12 64 -24 18 -33 -18 -3 -45 -13 -60 -20 -28 -15 -54
-2 -28 14 9 6 9 12 1 29 -14 25 -7 26 69 10z m-95 -69 c3 -5 1 -10 -4 -10 -6
0 -11 5 -11 10 0 6 2 10 4 10 3 0 8 -4 11 -10z m-55 -23 c-20 -18 -79 -43 -63
-27 14 15 54 38 68 39 5 1 3 -5 -5 -12z m-109 -64 c-105 -88 -116 -101 -105
-120 8 -12 23 -18 48 -17 46 2 47 -12 2 -25 -41 -11 -117 -62 -168 -112 -21
-21 -38 -35 -38 -31 0 3 -11 -8 -23 -26 -13 -17 -27 -29 -30 -25 -4 3 -7 -5
-7 -19 0 -43 18 -49 93 -28 37 10 67 17 67 15 0 -3 -43 -48 -95 -101 -52 -54
-95 -101 -95 -105 0 -5 -17 -33 -38 -63 -51 -73 -78 -142 -62 -161 13 -16 43
-12 77 10 30 20 40 14 17 -10 -10 -10 -26 -33 -36 -52 -18 -34 -18 -35 -1 -49
20 -15 36 -17 47 -7 3 4 16 8 28 10 17 3 19 1 8 -12 -7 -8 -9 -15 -4 -15 5 0
4 -4 -2 -8 -6 -4 -16 -16 -22 -27 -6 -11 -12 -15 -12 -8 0 7 -9 17 -20 23 -17
9 -26 4 -60 -32 -37 -40 -39 -41 -35 -15 3 14 10 38 15 53 8 21 7 31 -6 45
-17 19 -40 27 -30 11 3 -5 -1 -9 -9 -9 -10 0 -12 9 -8 31 8 44 112 256 125
256 6 0 8 3 5 6 -4 4 5 20 18 36 14 16 25 34 25 39 0 5 7 9 15 9 8 0 15 6 15
14 0 7 7 19 15 26 14 12 14 15 -1 31 -15 17 -41 18 -67 2 -6 -4 -17 -8 -23 -9
-6 -1 -22 -5 -34 -9 -22 -7 -21 -6 6 31 16 22 39 49 51 61 13 12 23 24 23 27
0 3 20 24 45 47 25 23 48 54 52 68 12 52 105 159 203 235 53 41 79 48 31 9z
m-241 -1207 c0 -11 -19 -15 -25 -6 -3 5 1 10 9 10 9 0 16 -2 16 -4z m-140 -70
c0 -7 -7 -21 -15 -32 -13 -18 -14 -16 -15 25 0 37 2 42 15 31 8 -7 15 -18 15
-24z"/>
<path d="M1214 2939 c-62 -14 -262 -144 -264 -171 0 -4 19 0 43 8 23 8 87 18
142 21 140 8 157 24 22 21 -59 -2 -107 -1 -107 2 1 7 76 53 136 83 29 15 68
27 88 29 20 1 36 6 36 10 0 10 -43 9 -96 -3z"/>
<path d="M2211 2771 c47 -30 96 -78 87 -86 -2 -3 -33 6 -67 20 -81 33 -156 47
-206 39 l-40 -7 66 -13 c88 -16 205 -66 285 -121 52 -35 65 -41 70 -28 18 47
-58 142 -155 194 -74 39 -100 41 -40 2z m150 -133 c10 -18 9 -19 -20 -3 -31
15 -37 26 -24 38 8 8 31 -10 44 -35z"/>
<path d="M920 2489 c-80 -13 -197 -55 -260 -92 -104 -61 -120 -72 -120 -79 0
-3 17 -1 38 5 21 6 109 11 202 12 158 0 167 -1 218 -26 65 -32 68 -19 5 21
-66 42 -114 53 -211 48 -45 -2 -79 -2 -75 2 10 9 173 57 243 72 64 13 251 17
295 5 20 -6 27 -5 20 2 -14 14 -177 41 -244 40 -31 -1 -81 -5 -111 -10z"/>
<path d="M1580 2475 c-104 -29 -150 -31 -229 -6 -34 10 -61 15 -61 11 0 -15
140 -79 188 -85 150 -21 213 -54 265 -137 29 -47 59 -69 37 -27 -17 32 -2 94
31 130 27 29 33 31 85 27 30 -3 60 -10 67 -17 10 -11 8 -12 -10 -7 -33 10 -73
-33 -73 -79 0 -95 137 -113 175 -22 l13 32 11 -28 c16 -41 14 -68 -9 -104 -24
-39 -67 -63 -117 -64 -36 0 -37 -1 -13 -11 15 -6 67 -8 130 -5 213 12 430 95
430 166 0 21 0 21 -20 1 -27 -27 -57 -33 -152 -28 -107 5 -163 32 -299 145
-138 114 -163 126 -274 129 -70 2 -108 -2 -175 -21z m280 -25 c54 -19 59 -30
15 -30 -47 0 -99 -40 -116 -89 l-11 -30 -31 33 c-32 33 -82 61 -127 70 -60 12
-73 16 -78 21 -3 3 5 5 18 5 28 0 101 20 117 33 7 5 16 6 21 3 5 -3 21 -2 37
2 32 9 103 1 155 -18z m174 -123 c3 3 9 -2 12 -12 4 -9 2 -20 -3 -24 -6 -3
-15 -16 -21 -27 -14 -27 -52 -37 -86 -24 -21 8 -26 16 -26 45 0 30 4 37 35 49
19 8 35 20 35 27 0 7 11 0 24 -14 13 -14 27 -23 30 -20z m147 -101 c5 3 9 0 9
-6 0 -6 5 -8 10 -5 6 3 10 2 10 -3 0 -5 6 -9 13 -10 6 -1 41 -7 77 -14 l64
-13 -54 -17 c-62 -19 -144 -35 -208 -42 l-43 -4 25 25 c14 14 26 31 27 37 1 6
2 27 4 46 2 19 3 36 4 38 1 2 13 -6 27 -17 15 -11 30 -18 35 -15z"/>
<path d="M2518 2327 c-6 -121 -39 -198 -113 -266 -86 -78 -125 -86 -405 -86
-257 0 -279 -4 -306 -56 -21 -42 -17 -66 19 -104 41 -45 127 -75 232 -83 70
-5 76 -6 50 -15 -80 -26 -195 -134 -280 -262 -123 -185 -204 -418 -236 -680
-5 -44 -12 -88 -15 -97 -3 -10 -2 -18 3 -18 4 0 28 59 52 132 49 144 96 247
134 292 l24 30 5 -113 c7 -131 22 -164 32 -69 10 101 42 204 106 336 62 128
96 167 52 60 -17 -43 -27 -89 -30 -143 -5 -96 4 -93 47 18 41 102 95 210 115
226 10 8 16 9 16 3 0 -6 -4 -14 -10 -17 -18 -11 -50 -136 -64 -258 -20 -162
-28 -303 -18 -292 5 6 26 82 47 170 43 180 86 319 118 379 l22 41 5 -170 5
-170 26 50 c35 67 51 118 59 190 6 58 7 59 18 32 33 -78 40 -320 13 -439 -14
-62 3 -43 37 40 44 107 55 192 41 300 -6 48 -17 102 -25 120 -10 24 -10 32 -2
30 14 -5 87 -193 88 -225 0 -13 5 -23 10 -23 18 0 11 122 -9 165 -21 45 -72
105 -89 105 -16 0 -25 -44 -18 -88 l7 -37 -20 43 c-30 63 -64 56 -76 -18 -4
-25 -13 -63 -20 -85 -12 -39 -13 -36 -14 61 -1 89 -3 103 -22 120 -21 19 -21
19 -50 -15 -15 -19 -26 -37 -24 -41 2 -3 -7 -25 -21 -49 -13 -24 -24 -53 -24
-65 0 -11 -5 -28 -11 -36 -17 -25 -4 59 19 119 17 43 19 57 9 72 -14 23 -23
24 -31 3 -3 -8 -10 -13 -15 -10 -5 3 -16 -9 -25 -27 -9 -17 -26 -48 -37 -67
l-20 -35 7 38 c9 50 -8 73 -40 52 -26 -17 -107 -174 -132 -257 l-18 -56 -19
24 c-10 13 -24 24 -30 24 -17 0 -89 -94 -92 -120 0 -3 -6 -14 -13 -25 -12 -17
-12 -14 -7 25 7 50 9 58 18 80 3 8 11 33 18 55 19 63 93 215 133 274 20 29 36
54 36 56 0 6 56 70 96 109 60 59 91 84 114 91 12 4 32 18 45 31 21 21 40 27
112 35 49 5 99 14 113 20 14 6 32 14 40 18 8 3 46 5 83 3 l69 -3 -39 -28 c-86
-63 -116 -116 -97 -173 4 -12 9 -29 10 -37 2 -7 16 -36 33 -63 17 -27 26 -46
21 -43 -23 14 -7 -14 26 -46 45 -43 102 -125 143 -208 18 -34 34 -61 37 -59 8
9 -49 135 -93 203 -58 89 -26 64 37 -30 110 -164 152 -292 154 -470 1 -75 -4
-138 -13 -167 -14 -51 -31 -64 -31 -25 0 34 -61 154 -116 226 l-48 65 -9 -40
c-4 -21 -7 -63 -5 -92 2 -28 0 -52 -4 -52 -5 0 -8 6 -8 14 0 8 -18 36 -40 61
l-40 46 0 -104 c0 -57 -7 -143 -15 -189 -13 -78 -68 -253 -83 -270 -4 -4 -7
50 -7 120 0 120 -2 130 -28 181 -34 64 -27 70 -116 -104 -74 -146 -143 -240
-224 -305 -54 -44 -177 -118 -177 -107 0 3 12 30 26 61 14 30 34 85 44 121 19
65 37 205 27 205 -2 0 -16 -24 -30 -53 -15 -29 -40 -66 -57 -82 -27 -26 -30
-27 -30 -9 0 11 7 46 15 77 20 79 17 95 -5 27 -11 -30 -19 -74 -19 -98 l-1
-43 30 16 c17 9 40 30 51 48 l21 32 -7 -40 c-8 -50 -56 -170 -101 -254 -18
-36 -32 -66 -30 -68 2 -3 38 9 79 25 187 73 344 227 433 428 16 35 32 64 36
64 3 0 10 -30 14 -67 10 -96 -10 -236 -50 -345 -51 -141 -50 -137 -29 -108 10
13 36 47 59 75 130 161 204 333 221 507 7 79 13 74 38 -30 9 -40 19 -71 22
-68 13 12 26 91 32 186 l6 105 27 -47 c39 -70 67 -150 69 -202 2 -25 6 -46 9
-46 9 0 44 50 68 95 48 95 52 233 12 389 -42 165 -104 272 -246 426 -131 142
-147 228 -56 295 72 53 124 67 201 54 136 -22 187 -72 221 -216 6 -29 16 -53
20 -53 17 0 72 77 111 155 129 260 63 483 -187 627 -43 25 -106 66 -139 90
-33 24 -65 47 -71 51 -8 4 -13 -22 -16 -86z m198 -71 c162 -109 222 -186 247
-318 21 -112 -32 -296 -116 -407 l-26 -33 -6 38 c-36 214 -131 262 -550 284
-260 13 -296 17 -341 40 -44 23 -57 19 -20 -5 47 -31 121 -47 244 -52 67 -3
122 -9 122 -13 0 -11 -257 -24 -339 -17 -130 10 -215 55 -209 112 5 52 34 59
293 66 250 6 288 14 377 75 77 54 133 167 145 290 l6 64 31 -25 c17 -14 81
-58 142 -99z m-421 -1006 c3 -5 1 -10 -4 -10 -6 0 -11 5 -11 10 0 6 2 10 4 10
3 0 8 -4 11 -10z m5 -54 c0 -8 -4 -17 -8 -20 -4 -2 -8 4 -8 15 0 10 4 19 8 19
4 0 8 -6 8 -14z m200 -376 c0 -3 -7 -7 -15 -7 -8 0 -15 9 -15 20 0 16 3 17 15
7 8 -7 15 -16 15 -20z m-87 -82 c-4 -8 11 -12 35 -9 8 1 12 -14 12 -50 0 -54
-4 -56 -24 -17 -7 14 -21 23 -34 22 -19 0 -22 5 -22 36 0 20 3 39 6 43 8 8 33
-16 27 -25z m-215 -179 c3 -12 2 -12 -6 0 -6 8 -15 10 -22 6 -9 -5 -11 -4 -6
4 10 15 28 10 34 -10z m62 -274 c6 3 1 -13 -11 -38 -12 -24 -30 -49 -40 -55
-17 -11 -17 -10 -3 24 8 19 14 40 13 47 -4 32 1 40 16 27 8 -6 19 -9 25 -5z"/>
<path d="M2648 2129 c-13 -7 -16 -18 -12 -38 5 -24 1 -31 -30 -50 -20 -13 -36
-24 -36 -26 0 -12 133 59 150 80 12 15 12 19 -5 31 -22 16 -43 17 -67 3z"/>
<path d="M811 2210 c-90 -43 -193 -114 -277 -192 -40 -37 -91 -79 -113 -94
-23 -15 -40 -28 -38 -30 4 -4 154 34 175 45 25 13 175 62 178 58 2 -2 -23 -22
-56 -46 -32 -23 -67 -52 -77 -63 -17 -20 -17 -20 20 -14 120 19 117 26 29 -61
-71 -71 -209 -249 -199 -259 2 -2 41 12 88 32 84 36 431 154 452 154 6 0 -11
-14 -39 -31 -27 -18 -83 -66 -125 -108 -78 -79 -176 -201 -162 -201 5 0 25 21
45 48 52 67 173 182 243 229 33 22 102 61 154 87 51 26 91 49 90 51 -2 1 -31
-3 -64 -11 -33 -7 -114 -25 -180 -40 -66 -14 -172 -44 -235 -66 -63 -21 -124
-42 -135 -45 -34 -11 70 101 200 215 66 58 121 109 123 112 3 7 -137 -25 -145
-34 -10 -9 8 -25 22 -19 22 8 9 -19 -15 -35 -16 -10 -21 -9 -30 9 -7 12 -18
18 -26 15 -19 -7 -17 4 6 34 11 14 19 21 18 15 -5 -19 17 -12 68 20 28 18 83
52 123 76 72 43 86 58 37 39 -15 -5 -97 -28 -181 -50 -85 -22 -177 -51 -206
-65 -29 -14 -54 -23 -56 -21 -2 2 20 27 49 55 98 92 197 160 288 198 30 12 46
23 35 23 -11 0 -49 -14 -84 -30z m-21 -195 c0 -3 -9 -15 -19 -27 -19 -20 -24
-7 -8 20 8 12 27 17 27 7z m-225 -386 c-4 -5 -13 -9 -22 -9 -13 0 -13 3 -3 15
13 15 35 11 25 -6z"/>
<path d="M1007 1073 c-59 -97 -106 -269 -107 -388 l0 -60 -26 43 c-14 23 -27
42 -29 42 -17 0 -75 -172 -75 -224 0 -24 -2 -26 -14 -16 -8 6 -23 32 -32 56
-14 36 -19 42 -31 32 -27 -22 -45 -70 -51 -137 l-7 -66 -40 65 c-57 91 -78
143 -79 194 -1 46 -16 41 -16 -5 0 -63 77 -220 153 -312 l23 -28 -4 88 c-4
100 11 162 32 130 6 -10 27 -40 47 -67 l36 -48 11 79 c14 93 40 189 52 189 5
0 11 -9 15 -20 3 -11 19 -29 36 -40 l29 -21 0 104 c0 159 40 334 92 410 11 15
18 32 16 37 -2 6 -16 -11 -31 -37z"/>
</g>
</svg>
